<?xml version="1.0" encoding="iso-8859-1"?>
<!-- Generator: Adobe Illustrator 19.0.0, SVG Export Plug-In . SVG Version: 6.00 Build 0)  -->
<svg version="1.1" id="Layer_1" xmlns="http://www.w3.org/2000/svg" xmlns:xlink="http://www.w3.org/1999/xlink" x="0px" y="0px"
	 viewBox="0 0 512 512" style="enable-background:new 0 0 512 512;" xml:space="preserve">
<path style="fill:#E87E04;" d="M482.025,455.015H359.837c-9.726,0-17.61-7.885-17.61-17.61V258.244c0-9.726,7.885-17.61,17.61-17.61
	h122.188c9.726,0,17.61,7.885,17.61,17.61v179.162C499.635,447.13,491.75,455.015,482.025,455.015z"/>
<path style="fill:#D55400;" d="M494.39,275.854H359.837c-9.726,0-17.61-7.885-17.61-17.61v-70.337c0-9.726,7.885-17.61,17.61-17.61
	H494.39c9.726,0,17.61,7.885,17.61,17.61v70.337C512,267.969,504.116,275.854,494.39,275.854z"/>
<path style="fill:#F59D00;" d="M152.163,455.015H29.975c-9.726,0-17.61-7.885-17.61-17.61V258.244c0-9.726,7.885-17.61,17.61-17.61
	h122.188c9.726,0,17.61,7.885,17.61,17.61v179.162C169.773,447.13,161.89,455.015,152.163,455.015z"/>
<path style="fill:#E87E04;" d="M152.163,275.854H17.61c-9.726,0-17.61-7.885-17.61-17.61v-70.337c0-9.726,7.885-17.61,17.61-17.61
	h134.553c9.726,0,17.61,7.885,17.61,17.61v70.337C169.773,267.969,161.89,275.854,152.163,275.854z"/>
<path style="fill:#F2C500;" d="M377.447,455.015H134.553V149.173c0-9.726,7.885-17.61,17.61-17.61h207.674
	c9.726,0,17.61,7.885,17.61,17.61L377.447,455.015L377.447,455.015z"/>
<path style="fill:#F59D00;" d="M377.447,149.173c0-9.726-7.885-17.61-17.61-17.61H256.001v323.453h121.447V149.173z"/>
<path style="fill:#E87E04;" d="M319.137,455.015H192.863v-90.786c0-9.726,7.885-17.61,17.61-17.61h91.054
	c9.726,0,17.61,7.885,17.61,17.61V455.015z"/>
<path style="fill:#F59D00;" d="M381.689,166.782H130.311c-9.726,0-17.61-7.885-17.61-17.61V74.595c0-9.726,7.885-17.61,17.61-17.61
	h251.378c9.726,0,17.61,7.885,17.61,17.61v74.578C399.3,158.899,391.416,166.782,381.689,166.782z"/>
<g>
	<path style="fill:#E87E04;" d="M381.689,56.984H256.001v109.798h125.69c9.726,0,17.61-7.885,17.61-17.61V74.595
		C399.3,64.869,391.416,56.984,381.689,56.984z"/>
	<path style="fill:#E87E04;" d="M297.875,240.685h-83.748c-9.726,0-17.61-7.885-17.61-17.61c0-9.726,7.885-17.61,17.61-17.61h83.748
		c9.726,0,17.61,7.885,17.61,17.61C315.485,232.8,307.6,240.685,297.875,240.685z"/>
	<path style="fill:#E87E04;" d="M297.875,292.505h-83.748c-9.726,0-17.61-7.885-17.61-17.61s7.885-17.61,17.61-17.61h83.748
		c9.726,0,17.61,7.885,17.61,17.61C315.485,284.622,307.6,292.505,297.875,292.505z"/>
</g>
<g>
	<path style="fill:#D55400;" d="M319.137,364.23c0-9.726-7.885-17.61-17.61-17.61h-45.526v108.396h63.137V364.23z"/>
	<path style="fill:#D55400;" d="M297.875,205.464h-41.874v35.221h41.874c9.726,0,17.61-7.885,17.61-17.61
		C315.485,213.349,307.6,205.464,297.875,205.464z"/>
	<path style="fill:#D55400;" d="M297.875,257.284h-41.874v35.221h41.874c9.726,0,17.61-7.885,17.61-17.61
		C315.485,265.169,307.6,257.284,297.875,257.284z"/>
</g>
<g>
</g>
<g>
</g>
<g>
</g>
<g>
</g>
<g>
</g>
<g>
</g>
<g>
</g>
<g>
</g>
<g>
</g>
<g>
</g>
<g>
</g>
<g>
</g>
<g>
</g>
<g>
</g>
<g>
</g>
</svg>
